<svg width="18" height="18" viewBox="0 0 18 18" fill="none" xmlns="http://www.w3.org/2000/svg">
<path d="M10.9887 1.2707C14.1595 1.2707 16.7295 3.8407 16.7295 7.01153M10.9887 4.2207C12.5295 4.2207 13.7795 5.46986 13.7795 7.01153M7.00452 10.9707C7.75452 11.6899 8.63369 12.2749 9.60535 12.6899L10.0379 12.874L11.367 11.524C11.697 11.189 12.1745 11.044 12.6354 11.1407L15.8554 11.8149C16.4004 11.9307 16.7895 12.4115 16.7895 12.9682V15.2865C16.7895 16.1157 16.1179 16.7874 15.2887 16.7874H14.5762C11.2979 16.7874 8.06285 15.7015 5.61619 13.5199C5.41452 13.3407 5.21869 13.1549 5.02785 12.9649L5.05868 12.9957C4.86785 12.8049 4.68285 12.609 4.50368 12.4074C2.32118 9.96153 1.23535 6.72653 1.23535 3.4482V2.7357C1.23535 1.90653 1.90702 1.23486 2.73619 1.23486H5.05452C5.61118 1.23486 6.09202 1.62403 6.20785 2.16903L6.88285 5.38903C6.97869 5.84903 6.83452 6.32736 6.49952 6.65736L5.14952 7.98653L5.33368 8.41903C5.74868 9.38986 6.28452 10.2207 7.00452 10.9707Z" stroke="#FF7A00" stroke-width="1.5" stroke-miterlimit="10" stroke-linecap="round" stroke-linejoin="round"/>
</svg>
