<svg width="486" height="197" viewBox="0 0 486 197" fill="none" xmlns="http://www.w3.org/2000/svg">
<g opacity="0.2">
<path fill-rule="evenodd" clip-rule="evenodd" d="M57.3227 9.80065L48.7585 1.2251L-49 99.1125L48.7585 197L57.3227 188.424L-31.8715 99.1125L57.3227 9.80065Z" fill="black"/>
<path fill-rule="evenodd" clip-rule="evenodd" d="M175.88 106.463L184.444 97.8875L86.6858 -4.2788e-06L-11.0727 97.8875L-2.50835 106.463L86.6858 17.1512L175.88 106.463Z" fill="black"/>
<path d="M283.237 174.81L246.608 72.3492H245.807V174.81H232.397V37.1282H246.608L282.636 137.388H283.637V37.1282H296.847V174.81H283.237Z" fill="black"/>
<path d="M319.184 174.81V37.1282H371.625V49.9358H333.195V98.7649H366.821V111.573H333.195V162.003H371.625V174.81H319.184Z" fill="black"/>
<path d="M439.815 174.81L417.597 116.976H416.396L394.179 174.81H379.968L407.389 105.569L380.368 37.1282H394.979L416.997 93.7619H417.997L439.815 37.1282H454.226L427.005 105.169L454.626 174.81H439.815Z" fill="black"/>
<path d="M531.574 37.1282V115.375C531.574 133.119 530.974 145.993 529.773 153.998C528.572 162.003 525.703 167.739 521.166 171.208C516.763 174.677 509.557 176.411 499.549 176.411C489.408 176.411 482.069 174.677 477.532 171.208C473.128 167.739 470.326 162.003 469.125 153.998C467.924 145.993 467.324 133.119 467.324 115.375V37.1282H481.335V122.579C481.335 135.12 481.668 144.059 482.336 149.395C483.003 154.732 484.537 158.467 486.939 160.602C489.475 162.603 493.678 163.604 499.549 163.604C505.42 163.604 509.557 162.603 511.959 160.602C514.494 158.467 516.096 154.732 516.763 149.395C517.43 144.059 517.763 135.12 517.763 122.579V37.1282H531.574Z" fill="black"/>
<path d="M577.376 176.411C573.106 176.411 568.436 176.144 563.365 175.611C558.294 175.077 553.891 174.41 550.155 173.609V161.402C559.495 162.87 567.168 163.604 573.173 163.604C577.443 163.604 580.845 163.27 583.381 162.603C586.05 161.936 588.251 160.668 589.986 158.801C591.587 157.2 592.655 154.732 593.188 151.396C593.722 147.928 593.989 143.258 593.989 137.388C593.989 129.383 593.722 123.913 593.188 120.978C592.788 118.043 591.721 115.975 589.986 114.774C588.385 113.44 585.249 112.306 580.579 111.372L561.564 107.57C557.56 106.77 554.558 104.969 552.556 102.167C550.555 99.3653 549.287 95.7631 548.754 91.3605C548.22 86.9579 547.953 81.021 547.953 73.5499C547.953 59.9418 550.355 50.2026 555.159 44.3325C560.096 38.4623 568.236 35.5272 579.578 35.5272C584.782 35.5272 589.652 35.8608 594.189 36.5278C598.726 37.0615 601.929 37.6618 603.797 38.3289V50.336C601.528 49.8024 598.459 49.3354 594.59 48.9352C590.72 48.535 586.917 48.3349 583.181 48.3349C578.243 48.3349 574.374 48.8685 571.571 49.9358C568.769 50.8697 566.634 52.4039 565.166 54.5386C563.832 56.6732 562.965 59.208 562.564 62.1431C562.164 65.0782 561.964 68.8804 561.964 73.5499C561.964 79.8203 562.164 84.3563 562.564 87.158C563.098 89.9596 563.965 91.9608 565.166 93.1616C566.501 94.2289 568.703 95.0293 571.772 95.563L588.785 99.1651C593.589 100.232 597.325 101.7 599.994 103.568C602.663 105.302 604.731 108.437 606.199 112.973C606.999 114.841 607.466 117.443 607.6 120.778C607.867 124.113 608 128.916 608 135.187C608 145.459 607.133 153.531 605.398 159.401C603.663 165.138 600.594 169.407 596.191 172.209C591.921 175.01 585.649 176.411 577.376 176.411Z" fill="black"/>
<path fill-rule="evenodd" clip-rule="evenodd" d="M167.553 115.157L129.774 152.986L102.116 125.291C104.037 122.386 105.156 118.903 105.156 115.157C105.156 105.008 96.94 96.781 86.8045 96.781C76.669 96.781 68.4526 105.008 68.4526 115.157C68.4526 125.306 76.669 133.533 86.8045 133.533C90.5449 133.533 94.0239 132.413 96.9251 130.489L124.583 158.184L86.8045 196.012L6.05591 115.157L86.8045 34.3021L167.553 115.157ZM99.0392 115.157C99.0392 121.923 93.5615 127.408 86.8045 127.408C80.0475 127.408 74.5699 121.923 74.5699 115.157C74.5699 108.391 80.0475 102.906 86.8045 102.906C93.5615 102.906 99.0392 108.391 99.0392 115.157Z" fill="#FF7A00"/>
<ellipse cx="121.673" cy="152.522" rx="23.8575" ry="23.889" fill="white"/>
</g>
</svg>
