<svg width="133" height="40" viewBox="0 0 133 40" fill="none" xmlns="http://www.w3.org/2000/svg">
<path fill-rule="evenodd" clip-rule="evenodd" d="M21.5235 1.98994L19.7898 0.248718L0 20.1243L19.7898 40L21.5235 38.2587L3.46741 20.1243L21.5235 1.98994Z" fill="black"/>
<path fill-rule="evenodd" clip-rule="evenodd" d="M45.5236 21.6169L47.2573 19.8756L27.4676 -8.68791e-07L7.67778 19.8756L9.41149 21.6169L27.4676 3.48246L45.5236 21.6169Z" fill="black"/>
<path d="M67.2564 35.4945L59.8414 14.6902H59.6794V35.4945H56.9646V7.53875H59.8414L67.1349 27.896H67.3375V7.53875H70.0117V35.4945H67.2564Z" fill="black"/>
<path d="M74.5334 35.4945V7.53875H85.1493V10.1393H77.3697V20.0538H84.1769V22.6544H77.3697V32.8939H85.1493V35.4945H74.5334Z" fill="black"/>
<path d="M98.9533 35.4945L94.4557 23.7515H94.2126L89.715 35.4945H86.8381L92.3892 21.4354L86.9192 7.53875H89.8771L94.3342 19.038H94.5367L98.9533 7.53875H101.871L96.3601 21.3541L101.952 35.4945H98.9533Z" fill="black"/>
<path d="M117.529 7.53875V23.4264C117.529 27.0292 117.407 29.6433 117.164 31.2686C116.921 32.8939 116.34 34.0588 115.422 34.7631C114.53 35.4674 113.072 35.8195 111.046 35.8195C108.993 35.8195 107.507 35.4674 106.589 34.7631C105.697 34.0588 105.13 32.8939 104.887 31.2686C104.644 29.6433 104.522 27.0292 104.522 23.4264V7.53875H107.358V24.8892C107.358 27.4355 107.426 29.2505 107.561 30.3341C107.696 31.4176 108.007 32.1761 108.493 32.6095C109.006 33.0159 109.857 33.219 111.046 33.219C112.234 33.219 113.072 33.0159 113.558 32.6095C114.071 32.1761 114.395 31.4176 114.53 30.3341C114.665 29.2505 114.733 27.4355 114.733 24.8892V7.53875H117.529Z" fill="black"/>
<path d="M126.801 35.8195C125.936 35.8195 124.991 35.7654 123.964 35.657C122.938 35.5487 122.046 35.4132 121.29 35.2507V32.7721C123.181 33.07 124.734 33.219 125.95 33.219C126.814 33.219 127.503 33.1513 128.016 33.0159C128.556 32.8804 129.002 32.6231 129.353 32.2438C129.677 31.9187 129.894 31.4176 130.002 30.7404C130.11 30.0361 130.164 29.088 130.164 27.896C130.164 26.2707 130.11 25.1601 130.002 24.5641C129.921 23.9682 129.704 23.5483 129.353 23.3045C129.029 23.0336 128.394 22.8033 127.449 22.6137L123.6 21.8417C122.789 21.6791 122.181 21.3135 121.776 20.7446C121.371 20.1757 121.114 19.4443 121.006 18.5504C120.898 17.6565 120.844 16.451 120.844 14.934C120.844 12.171 121.331 10.1935 122.303 9.00155C123.302 7.80964 124.95 7.21368 127.246 7.21368C128.3 7.21368 129.286 7.28141 130.204 7.41685C131.123 7.52521 131.771 7.64711 132.149 7.78255V10.2206C131.69 10.1122 131.069 10.0174 130.285 9.93612C129.502 9.85485 128.732 9.81422 127.976 9.81422C126.976 9.81422 126.193 9.92257 125.626 10.1393C125.058 10.3289 124.626 10.6404 124.329 11.0739C124.059 11.5073 123.883 12.022 123.802 12.6179C123.721 13.2139 123.681 13.9859 123.681 14.934C123.681 16.2072 123.721 17.1282 123.802 17.6971C123.91 18.266 124.086 18.6723 124.329 18.9161C124.599 19.1328 125.045 19.2953 125.666 19.4037L129.11 20.1351C130.083 20.3518 130.839 20.6498 131.379 21.029C131.919 21.3812 132.338 22.0178 132.635 22.9388C132.797 23.318 132.892 23.8463 132.919 24.5235C132.973 25.2007 133 26.1759 133 27.4491C133 29.5349 132.824 31.1738 132.473 32.3657C132.122 33.5305 131.501 34.3974 130.609 34.9662C129.745 35.5351 128.475 35.8195 126.801 35.8195Z" fill="black"/>
<path fill-rule="evenodd" clip-rule="evenodd" d="M43.838 23.3822L36.1902 31.0632L30.5912 25.4399C30.9802 24.85 31.2067 24.1427 31.2067 23.3822C31.2067 21.3215 29.5434 19.651 27.4916 19.651C25.4398 19.651 23.7765 21.3215 23.7765 23.3822C23.7765 25.4429 25.4398 27.1134 27.4916 27.1134C28.2488 27.1134 28.9531 26.8859 29.5404 26.4952L35.1394 32.1185L27.4916 39.7995L11.1453 23.3822L27.4916 6.9649L43.838 23.3822ZM29.9683 23.3822C29.9683 24.756 28.8594 25.8697 27.4916 25.8697C26.1237 25.8697 25.0149 24.756 25.0149 23.3822C25.0149 22.0084 26.1237 20.8947 27.4916 20.8947C28.8594 20.8947 29.9683 22.0084 29.9683 23.3822Z" fill="#FF7A00"/>
<ellipse cx="34.5503" cy="30.969" rx="4.82961" ry="4.85056" fill="white"/>
</svg>
