<svg width="18" height="18" viewBox="0 0 18 18" fill="none" xmlns="http://www.w3.org/2000/svg">
<path d="M10.9892 1.27094C14.16 1.27094 16.73 3.84094 16.73 7.01177M10.9892 4.22094C12.53 4.22094 13.78 5.47011 13.78 7.01177M7.00501 10.9709C7.75501 11.6901 8.63417 12.2751 9.60584 12.6901L10.0383 12.8743L11.3675 11.5243C11.6975 11.1893 12.175 11.0443 12.6358 11.1409L15.8558 11.8151C16.4008 11.9309 16.79 12.4118 16.79 12.9684V15.2868C16.79 16.1159 16.1183 16.7876 15.2892 16.7876H14.5767C11.2983 16.7876 8.06334 15.7018 5.61667 13.5201C5.41501 13.3409 5.21917 13.1551 5.02834 12.9651L5.05917 12.9959C4.86834 12.8051 4.68334 12.6093 4.50417 12.4076C2.32167 9.96177 1.23584 6.72677 1.23584 3.44844V2.73594C1.23584 1.90677 1.90751 1.23511 2.73667 1.23511H5.05501C5.61167 1.23511 6.09251 1.62427 6.20834 2.16927L6.88334 5.38927C6.97917 5.84927 6.83501 6.32761 6.50001 6.65761L5.15001 7.98677L5.33417 8.41927C5.74917 9.39011 6.28501 10.2209 7.00501 10.9709Z" stroke="currentColor" stroke-width="1.5" stroke-miterlimit="10" stroke-linecap="round" stroke-linejoin="round"/>
</svg>
